<svg width="560" height="257" viewBox="0 0 560 257" fill="none" xmlns="http://www.w3.org/2000/svg">
<g clip-path="url(#clip0_10_3)">
<g filter="url(#filter0_d_10_3)">
<path d="M307 99L366 99" stroke="#5F5F5F" stroke-width="15" stroke-miterlimit="10" stroke-linecap="round"/>
</g>
<g filter="url(#filter1_d_10_3)">
<path d="M241 188V11H374" stroke="#5F5F5F" stroke-width="15" stroke-miterlimit="10" stroke-linecap="round" shape-rendering="crispEdges"/>
</g>
<g filter="url(#filter2_d_10_3)">
<path d="M550 11L428 99.505L550 188" stroke="#5F5F5F" stroke-width="15" stroke-miterlimit="10" stroke-linecap="round" shape-rendering="crispEdges"/>
</g>
<g clip-path="url(#clip1_10_3)">
<g filter="url(#filter3_d_10_3)">
<path d="M189.695 185.192L144.01 99.6154" stroke="#5F5F5F" stroke-width="15" stroke-miterlimit="10" stroke-linecap="round"/>
</g>
<g filter="url(#filter4_d_10_3)">
<path d="M10 185.106L99.8071 15" stroke="#5F5F5F" stroke-width="15" stroke-miterlimit="10" stroke-linecap="round"/>
</g>
</g>
</g>
<path d="M9.85041 246H7.60041L20.197 211.091H22.6516L35.2481 246H32.9981L21.5095 213.835H21.3391L9.85041 246ZM13.0379 232.858H29.8106V234.835H13.0379V232.858ZM20.4186 207.358L24.9868 199.824H27.4584L22.3277 207.358H20.4186ZM47.6334 235.773L47.5993 232.79H48.1447L61.2356 219.818H63.9459L51.9288 231.75L51.7243 231.835L47.6334 235.773ZM45.8265 246V211.091H47.9061V246H45.8265ZM61.8322 246L50.7868 232.04L52.2868 230.659L64.4913 246H61.8322ZM83.5626 246.545C81.4035 246.545 79.4831 245.966 77.8013 244.807C76.1194 243.636 74.7956 242.028 73.8297 239.983C72.8638 237.937 72.3808 235.608 72.3808 232.994C72.3808 230.369 72.8638 228.04 73.8297 226.006C74.7956 223.96 76.1194 222.352 77.8013 221.182C79.4831 220.011 81.4035 219.426 83.5626 219.426C85.7217 219.426 87.6422 220.011 89.324 221.182C91.0058 222.352 92.3297 223.96 93.2956 226.006C94.2615 228.051 94.7444 230.381 94.7444 232.994C94.7444 235.608 94.2615 237.937 93.2956 239.983C92.3297 242.028 91.0058 243.636 89.324 244.807C87.6422 245.966 85.7217 246.545 83.5626 246.545ZM83.5626 244.619C85.3922 244.619 86.9888 244.102 88.3524 243.068C89.7274 242.034 90.7899 240.636 91.5399 238.875C92.3013 237.114 92.6819 235.153 92.6819 232.994C92.6819 230.835 92.3013 228.881 91.5399 227.131C90.7785 225.369 89.716 223.972 88.3524 222.938C86.9888 221.892 85.3922 221.369 83.5626 221.369C81.7331 221.369 80.1365 221.892 78.7729 222.938C77.4092 223.972 76.3467 225.369 75.5854 227.131C74.824 228.881 74.4433 230.835 74.4433 232.994C74.4433 235.153 74.8183 237.114 75.5683 238.875C76.3297 240.636 77.3922 242.034 78.7558 243.068C80.1308 244.102 81.7331 244.619 83.5626 244.619ZM123.344 225.46L121.418 225.972C121.111 225.017 120.674 224.193 120.106 223.5C119.537 222.807 118.821 222.273 117.958 221.898C117.106 221.511 116.083 221.318 114.89 221.318C112.969 221.318 111.395 221.795 110.168 222.75C108.952 223.705 108.344 224.949 108.344 226.483C108.344 227.733 108.759 228.767 109.588 229.585C110.418 230.392 111.685 231.006 113.39 231.426L117.412 232.432C119.481 232.943 121.037 233.773 122.083 234.92C123.128 236.057 123.651 237.472 123.651 239.165C123.651 240.608 123.259 241.886 122.475 243C121.691 244.114 120.606 244.983 119.219 245.608C117.844 246.233 116.242 246.545 114.412 246.545C111.969 246.545 109.963 245.977 108.395 244.841C106.827 243.693 105.821 242.051 105.378 239.915L107.373 239.403C107.748 241.108 108.526 242.409 109.708 243.307C110.901 244.193 112.463 244.636 114.395 244.636C116.532 244.636 118.253 244.131 119.56 243.119C120.878 242.108 121.537 240.812 121.537 239.233C121.537 238.028 121.151 237.011 120.378 236.182C119.606 235.352 118.435 234.744 116.867 234.358L112.691 233.335C110.554 232.812 108.952 231.977 107.884 230.83C106.816 229.67 106.282 228.244 106.282 226.551C106.282 225.142 106.651 223.903 107.39 222.835C108.128 221.767 109.145 220.932 110.441 220.33C111.736 219.727 113.219 219.426 114.89 219.426C117.106 219.426 118.912 219.949 120.31 220.994C121.708 222.04 122.719 223.528 123.344 225.46ZM154.681 246V211.091H174.164V213.068H156.812V227.54H172.545V229.517H156.812V246H154.681ZM195.162 246.545C192.798 246.545 190.741 245.96 188.991 244.79C187.241 243.619 185.889 242.017 184.935 239.983C183.98 237.949 183.503 235.631 183.503 233.028C183.503 230.415 183.98 228.085 184.935 226.04C185.9 223.994 187.224 222.381 188.906 221.199C190.588 220.017 192.508 219.426 194.667 219.426C196.133 219.426 197.52 219.722 198.827 220.312C200.145 220.892 201.304 221.733 202.304 222.835C203.315 223.937 204.105 225.267 204.673 226.824C205.253 228.381 205.542 230.131 205.542 232.074V233.369H184.815V231.477H203.463C203.463 229.58 203.077 227.869 202.304 226.347C201.531 224.824 200.48 223.614 199.15 222.716C197.821 221.818 196.327 221.369 194.667 221.369C192.929 221.369 191.378 221.858 190.014 222.835C188.662 223.801 187.588 225.108 186.792 226.756C186.008 228.403 185.599 230.244 185.565 232.278V233.131C185.565 235.312 185.946 237.273 186.707 239.011C187.48 240.739 188.582 242.108 190.014 243.119C191.446 244.119 193.162 244.619 195.162 244.619C196.594 244.619 197.815 244.381 198.827 243.903C199.849 243.415 200.685 242.824 201.332 242.131C201.98 241.437 202.469 240.767 202.798 240.119L204.69 240.886C204.292 241.761 203.673 242.636 202.832 243.511C202.003 244.375 200.946 245.097 199.662 245.676C198.389 246.256 196.889 246.545 195.162 246.545ZM217.502 246V219.818H219.53V223.909H219.717C220.286 222.568 221.246 221.494 222.598 220.688C223.95 219.869 225.49 219.46 227.217 219.46C227.399 219.46 227.581 219.46 227.763 219.46C227.945 219.46 228.115 219.466 228.274 219.477V221.574C228.138 221.562 227.973 221.545 227.78 221.523C227.598 221.489 227.371 221.472 227.098 221.472C225.644 221.472 224.348 221.784 223.212 222.409C222.087 223.034 221.2 223.898 220.553 225C219.905 226.091 219.581 227.341 219.581 228.75V246H217.502ZM248.074 246.545C245.711 246.545 243.654 245.96 241.904 244.79C240.154 243.619 238.802 242.017 237.847 239.983C236.892 237.949 236.415 235.631 236.415 233.028C236.415 230.415 236.892 228.085 237.847 226.04C238.813 223.994 240.137 222.381 241.819 221.199C243.5 220.017 245.421 219.426 247.58 219.426C249.046 219.426 250.432 219.722 251.739 220.312C253.057 220.892 254.216 221.733 255.216 222.835C256.228 223.937 257.017 225.267 257.586 226.824C258.165 228.381 258.455 230.131 258.455 232.074V233.369H237.728V231.477H256.375C256.375 229.58 255.989 227.869 255.216 226.347C254.444 224.824 253.392 223.614 252.063 222.716C250.733 221.818 249.239 221.369 247.58 221.369C245.841 221.369 244.29 221.858 242.927 222.835C241.574 223.801 240.5 225.108 239.705 226.756C238.921 228.403 238.512 230.244 238.478 232.278V233.131C238.478 235.312 238.858 237.273 239.62 239.011C240.392 240.739 241.495 242.108 242.927 243.119C244.358 244.119 246.074 244.619 248.074 244.619C249.506 244.619 250.728 244.381 251.739 243.903C252.762 243.415 253.597 242.824 254.245 242.131C254.892 241.437 255.381 240.767 255.711 240.119L257.603 240.886C257.205 241.761 256.586 242.636 255.745 243.511C254.915 244.375 253.858 245.097 252.574 245.676C251.302 246.256 249.802 246.545 248.074 246.545ZM272.494 229.023V246H270.414V219.818H272.442V223.96H272.647C273.261 222.608 274.244 221.523 275.596 220.705C276.948 219.886 278.556 219.477 280.42 219.477C282.181 219.477 283.727 219.852 285.056 220.602C286.397 221.352 287.442 222.42 288.192 223.807C288.954 225.182 289.335 226.824 289.335 228.733V246H287.255V228.818C287.255 226.591 286.59 224.801 285.261 223.449C283.942 222.085 282.198 221.403 280.028 221.403C278.573 221.403 277.278 221.722 276.141 222.358C275.005 222.994 274.113 223.886 273.465 225.034C272.817 226.17 272.494 227.5 272.494 229.023ZM312.595 246.545C310.367 246.545 308.407 245.96 306.714 244.79C305.021 243.608 303.697 241.994 302.742 239.949C301.799 237.903 301.328 235.585 301.328 232.994C301.328 230.403 301.805 228.085 302.76 226.04C303.714 223.994 305.038 222.381 306.731 221.199C308.424 220.017 310.373 219.426 312.578 219.426C314.237 219.426 315.748 219.767 317.112 220.449C318.487 221.131 319.623 222.08 320.521 223.295C321.43 224.511 322.01 225.92 322.26 227.523H320.146C319.805 225.75 318.953 224.284 317.589 223.125C316.237 221.955 314.572 221.369 312.595 221.369C310.822 221.369 309.242 221.869 307.856 222.869C306.47 223.858 305.379 225.227 304.583 226.977C303.788 228.716 303.39 230.71 303.39 232.96C303.39 235.176 303.777 237.165 304.549 238.926C305.322 240.676 306.402 242.062 307.788 243.085C309.174 244.108 310.777 244.619 312.595 244.619C313.879 244.619 315.049 244.364 316.106 243.852C317.174 243.341 318.066 242.614 318.782 241.67C319.498 240.727 319.97 239.625 320.197 238.364H322.311C322.061 239.977 321.492 241.398 320.606 242.625C319.72 243.852 318.589 244.813 317.214 245.506C315.839 246.199 314.299 246.545 312.595 246.545ZM353.235 246V211.091H355.365V231.358H355.604L374.013 211.091H376.842L361.689 227.608L376.706 246H374.047L360.325 229.142L355.365 234.631V246H353.235ZM394.38 246.562C392.868 246.562 391.482 246.261 390.221 245.659C388.971 245.057 387.965 244.176 387.204 243.017C386.454 241.858 386.079 240.449 386.079 238.79C386.079 237.699 386.272 236.739 386.658 235.909C387.044 235.08 387.641 234.364 388.448 233.761C389.255 233.159 390.289 232.665 391.55 232.278C392.811 231.881 394.317 231.574 396.067 231.358C397.397 231.199 398.584 231.045 399.63 230.898C400.675 230.739 401.493 230.494 402.084 230.165C402.686 229.835 402.988 229.335 402.988 228.665V227.574C402.988 225.665 402.385 224.148 401.181 223.023C399.976 221.898 398.317 221.335 396.204 221.335C394.329 221.335 392.749 221.75 391.465 222.58C390.192 223.398 389.3 224.455 388.789 225.75L386.829 225.017C387.329 223.767 388.05 222.727 388.993 221.898C389.948 221.068 391.039 220.449 392.266 220.04C393.505 219.631 394.8 219.426 396.152 219.426C397.323 219.426 398.436 219.591 399.493 219.92C400.561 220.25 401.51 220.75 402.34 221.42C403.181 222.091 403.846 222.949 404.334 223.994C404.823 225.028 405.067 226.267 405.067 227.71V246H402.988V241.278H402.834C402.38 242.256 401.755 243.148 400.959 243.955C400.175 244.75 399.226 245.386 398.113 245.864C397.01 246.33 395.766 246.562 394.38 246.562ZM394.584 244.636C396.221 244.636 397.669 244.239 398.931 243.443C400.204 242.636 401.198 241.534 401.914 240.136C402.63 238.739 402.988 237.153 402.988 235.381V231.528C402.726 231.756 402.346 231.96 401.846 232.142C401.357 232.312 400.8 232.466 400.175 232.602C399.561 232.727 398.914 232.841 398.232 232.943C397.561 233.034 396.908 233.119 396.272 233.199C394.363 233.426 392.806 233.778 391.601 234.256C390.408 234.722 389.533 235.335 388.976 236.097C388.431 236.858 388.158 237.778 388.158 238.858C388.158 240.642 388.772 242.051 389.999 243.085C391.226 244.119 392.755 244.636 394.584 244.636ZM420.665 211.091V246H418.586V211.091H420.665ZM441.011 246.562C439.5 246.562 438.113 246.261 436.852 245.659C435.602 245.057 434.596 244.176 433.835 243.017C433.085 241.858 432.71 240.449 432.71 238.79C432.71 237.699 432.903 236.739 433.289 235.909C433.676 235.08 434.272 234.364 435.079 233.761C435.886 233.159 436.92 232.665 438.181 232.278C439.443 231.881 440.948 231.574 442.698 231.358C444.028 231.199 445.215 231.045 446.261 230.898C447.306 230.739 448.125 230.494 448.715 230.165C449.318 229.835 449.619 229.335 449.619 228.665V227.574C449.619 225.665 449.017 224.148 447.812 223.023C446.608 221.898 444.948 221.335 442.835 221.335C440.96 221.335 439.38 221.75 438.096 222.58C436.823 223.398 435.931 224.455 435.42 225.75L433.46 225.017C433.96 223.767 434.681 222.727 435.625 221.898C436.579 221.068 437.67 220.449 438.897 220.04C440.136 219.631 441.431 219.426 442.784 219.426C443.954 219.426 445.068 219.591 446.125 219.92C447.193 220.25 448.142 220.75 448.971 221.42C449.812 222.091 450.477 222.949 450.965 223.994C451.454 225.028 451.698 226.267 451.698 227.71V246H449.619V241.278H449.465C449.011 242.256 448.386 243.148 447.59 243.955C446.806 244.75 445.858 245.386 444.744 245.864C443.642 246.33 442.397 246.562 441.011 246.562ZM441.215 244.636C442.852 244.636 444.301 244.239 445.562 243.443C446.835 242.636 447.829 241.534 448.545 240.136C449.261 238.739 449.619 237.153 449.619 235.381V231.528C449.358 231.756 448.977 231.96 448.477 232.142C447.988 232.312 447.431 232.466 446.806 232.602C446.193 232.727 445.545 232.841 444.863 232.943C444.193 233.034 443.539 233.119 442.903 233.199C440.994 233.426 439.437 233.778 438.233 234.256C437.039 234.722 436.164 235.335 435.608 236.097C435.062 236.858 434.789 237.778 434.789 238.858C434.789 240.642 435.403 242.051 436.63 243.085C437.858 244.119 439.386 244.636 441.215 244.636ZM465.217 246V219.818H467.246V223.773H467.45C467.95 222.455 468.814 221.409 470.041 220.636C471.268 219.864 472.746 219.477 474.473 219.477C476.371 219.477 477.899 219.932 479.058 220.841C480.229 221.75 481.069 222.983 481.581 224.54H481.768C482.28 223.006 483.194 221.778 484.513 220.858C485.842 219.938 487.479 219.477 489.422 219.477C491.956 219.477 493.888 220.278 495.217 221.881C496.558 223.472 497.229 225.653 497.229 228.426V246H495.149V228.426C495.149 226.244 494.626 224.528 493.581 223.278C492.535 222.028 491.001 221.403 488.979 221.403C486.819 221.403 485.16 222.08 484.001 223.432C482.842 224.784 482.263 226.506 482.263 228.597V246H480.183V228.29C480.183 226.256 479.672 224.602 478.649 223.33C477.626 222.045 476.092 221.403 474.047 221.403C472.66 221.403 471.461 221.722 470.45 222.358C469.45 222.994 468.672 223.869 468.115 224.983C467.569 226.097 467.297 227.375 467.297 228.818V246H465.217ZM517.595 246.562C516.084 246.562 514.698 246.261 513.436 245.659C512.186 245.057 511.181 244.176 510.419 243.017C509.669 241.858 509.294 240.449 509.294 238.79C509.294 237.699 509.487 236.739 509.874 235.909C510.26 235.08 510.857 234.364 511.663 233.761C512.47 233.159 513.504 232.665 514.766 232.278C516.027 231.881 517.533 231.574 519.283 231.358C520.612 231.199 521.8 231.045 522.845 230.898C523.891 230.739 524.709 230.494 525.3 230.165C525.902 229.835 526.203 229.335 526.203 228.665V227.574C526.203 225.665 525.601 224.148 524.396 223.023C523.192 221.898 521.533 221.335 519.419 221.335C517.544 221.335 515.965 221.75 514.681 222.58C513.408 223.398 512.516 224.455 512.004 225.75L510.044 225.017C510.544 223.767 511.266 222.727 512.209 221.898C513.163 221.068 514.254 220.449 515.482 220.04C516.72 219.631 518.016 219.426 519.368 219.426C520.538 219.426 521.652 219.591 522.709 219.92C523.777 220.25 524.726 220.75 525.556 221.42C526.396 222.091 527.061 222.949 527.55 223.994C528.038 225.028 528.283 226.267 528.283 227.71V246H526.203V241.278H526.05C525.595 242.256 524.97 243.148 524.175 243.955C523.391 244.75 522.442 245.386 521.328 245.864C520.226 246.33 518.982 246.562 517.595 246.562ZM517.8 244.636C519.436 244.636 520.885 244.239 522.146 243.443C523.419 242.636 524.413 241.534 525.129 240.136C525.845 238.739 526.203 237.153 526.203 235.381V231.528C525.942 231.756 525.561 231.96 525.061 232.142C524.573 232.312 524.016 232.466 523.391 232.602C522.777 232.727 522.129 232.841 521.448 232.943C520.777 233.034 520.124 233.119 519.487 233.199C517.578 233.426 516.021 233.778 514.817 234.256C513.624 234.722 512.749 235.335 512.192 236.097C511.646 236.858 511.374 237.778 511.374 238.858C511.374 240.642 511.987 242.051 513.215 243.085C514.442 244.119 515.97 244.636 517.8 244.636ZM518.635 216.085L523.203 208.551H525.675L520.544 216.085H518.635ZM541.802 246V219.818H543.83V223.909H544.017C544.586 222.568 545.546 221.494 546.898 220.688C548.25 219.869 549.79 219.46 551.517 219.46C551.699 219.46 551.881 219.46 552.063 219.46C552.245 219.46 552.415 219.466 552.574 219.477V221.574C552.438 221.562 552.273 221.545 552.08 221.523C551.898 221.489 551.671 221.472 551.398 221.472C549.944 221.472 548.648 221.784 547.512 222.409C546.387 223.034 545.5 223.898 544.853 225C544.205 226.091 543.881 227.341 543.881 228.75V246H541.802Z" fill="#5F5F5F"/>
<defs>
<filter id="filter0_d_10_3" x="295.5" y="91.5" width="82" height="23" filterUnits="userSpaceOnUse" color-interpolation-filters="sRGB">
<feFlood flood-opacity="0" result="BackgroundImageFix"/>
<feColorMatrix in="SourceAlpha" type="matrix" values="0 0 0 0 0 0 0 0 0 0 0 0 0 0 0 0 0 0 127 0" result="hardAlpha"/>
<feOffset dy="4"/>
<feGaussianBlur stdDeviation="2"/>
<feComposite in2="hardAlpha" operator="out"/>
<feColorMatrix type="matrix" values="0 0 0 0 0 0 0 0 0 0 0 0 0 0 0 0 0 0 0.25 0"/>
<feBlend mode="normal" in2="BackgroundImageFix" result="effect1_dropShadow_10_3"/>
<feBlend mode="normal" in="SourceGraphic" in2="effect1_dropShadow_10_3" result="shape"/>
</filter>
<filter id="filter1_d_10_3" x="229.5" y="3.5" width="156" height="200" filterUnits="userSpaceOnUse" color-interpolation-filters="sRGB">
<feFlood flood-opacity="0" result="BackgroundImageFix"/>
<feColorMatrix in="SourceAlpha" type="matrix" values="0 0 0 0 0 0 0 0 0 0 0 0 0 0 0 0 0 0 127 0" result="hardAlpha"/>
<feOffset dy="4"/>
<feGaussianBlur stdDeviation="2"/>
<feComposite in2="hardAlpha" operator="out"/>
<feColorMatrix type="matrix" values="0 0 0 0 0 0 0 0 0 0 0 0 0 0 0 0 0 0 0.25 0"/>
<feBlend mode="normal" in2="BackgroundImageFix" result="effect1_dropShadow_10_3"/>
<feBlend mode="normal" in="SourceGraphic" in2="effect1_dropShadow_10_3" result="shape"/>
</filter>
<filter id="filter2_d_10_3" x="411.227" y="3.49947" width="150.273" height="200.001" filterUnits="userSpaceOnUse" color-interpolation-filters="sRGB">
<feFlood flood-opacity="0" result="BackgroundImageFix"/>
<feColorMatrix in="SourceAlpha" type="matrix" values="0 0 0 0 0 0 0 0 0 0 0 0 0 0 0 0 0 0 127 0" result="hardAlpha"/>
<feOffset dy="4"/>
<feGaussianBlur stdDeviation="2"/>
<feComposite in2="hardAlpha" operator="out"/>
<feColorMatrix type="matrix" values="0 0 0 0 0 0 0 0 0 0 0 0 0 0 0 0 0 0 0.25 0"/>
<feBlend mode="normal" in2="BackgroundImageFix" result="effect1_dropShadow_10_3"/>
<feBlend mode="normal" in="SourceGraphic" in2="effect1_dropShadow_10_3" result="shape"/>
</filter>
<filter id="filter3_d_10_3" x="132.509" y="92.1139" width="68.6882" height="108.58" filterUnits="userSpaceOnUse" color-interpolation-filters="sRGB">
<feFlood flood-opacity="0" result="BackgroundImageFix"/>
<feColorMatrix in="SourceAlpha" type="matrix" values="0 0 0 0 0 0 0 0 0 0 0 0 0 0 0 0 0 0 127 0" result="hardAlpha"/>
<feOffset dy="4"/>
<feGaussianBlur stdDeviation="2"/>
<feComposite in2="hardAlpha" operator="out"/>
<feColorMatrix type="matrix" values="0 0 0 0 0 0 0 0 0 0 0 0 0 0 0 0 0 0 0.25 0"/>
<feBlend mode="normal" in2="BackgroundImageFix" result="effect1_dropShadow_10_3"/>
<feBlend mode="normal" in="SourceGraphic" in2="effect1_dropShadow_10_3" result="shape"/>
</filter>
<filter id="filter4_d_10_3" x="-1.5015" y="7.49849" width="112.81" height="193.109" filterUnits="userSpaceOnUse" color-interpolation-filters="sRGB">
<feFlood flood-opacity="0" result="BackgroundImageFix"/>
<feColorMatrix in="SourceAlpha" type="matrix" values="0 0 0 0 0 0 0 0 0 0 0 0 0 0 0 0 0 0 127 0" result="hardAlpha"/>
<feOffset dy="4"/>
<feGaussianBlur stdDeviation="2"/>
<feComposite in2="hardAlpha" operator="out"/>
<feColorMatrix type="matrix" values="0 0 0 0 0 0 0 0 0 0 0 0 0 0 0 0 0 0 0.25 0"/>
<feBlend mode="normal" in2="BackgroundImageFix" result="effect1_dropShadow_10_3"/>
<feBlend mode="normal" in="SourceGraphic" in2="effect1_dropShadow_10_3" result="shape"/>
</filter>
<clipPath id="clip0_10_3">
<rect width="560" height="200" fill="white"/>
</clipPath>
<clipPath id="clip1_10_3">
<rect width="200" height="200" fill="white"/>
</clipPath>
</defs>
</svg>
