<svg width="560" height="257" xmlns="http://www.w3.org/2000/svg" fill="none">
 <defs>
  <clipPath id="clip0_10_3">
   <rect id="svg_1" fill="white" height="200" width="560"/>
  </clipPath>
  <clipPath id="clip1_10_3">
   <rect id="svg_2" fill="white" height="200" width="200"/>
  </clipPath>
 </defs>
 <g>
  <title>Layer 1</title>
  <g id="svg_3" clip-path="url(#clip0_10_3)">
   <g id="svg_4">
    <path id="svg_5" stroke-linecap="round" stroke-miterlimit="10" stroke-width="15" stroke="#5F5F5F" d="m307,99l59,0"/>
   </g>
   <g id="svg_6">
    <path id="svg_7" shape-rendering="crispEdges" stroke-linecap="round" stroke-miterlimit="10" stroke-width="15" stroke="#5F5F5F" d="m241,188l0,-177l133,0"/>
   </g>
   <g id="svg_8">
    <path id="svg_9" shape-rendering="crispEdges" stroke-linecap="round" stroke-miterlimit="10" stroke-width="15" stroke="#5F5F5F" d="m550,11l-122,88.505l122,88.495"/>
   </g>
   <g id="svg_10" clip-path="url(#clip1_10_3)">
    <g id="svg_11">
     <path id="svg_12" stroke-linecap="round" stroke-miterlimit="10" stroke-width="15" stroke="#5F5F5F" d="m189.69501,185.192l-45.68501,-85.5766"/>
    </g>
    <g id="svg_13">
     <path id="svg_14" stroke-linecap="round" stroke-miterlimit="10" stroke-width="15" stroke="#5F5F5F" d="m10,185.106l89.8071,-170.106"/>
    </g>
   </g>
  </g>
  <path id="svg_15" fill="#5F5F5F" d="m9.85041,246l-2.25,0l12.59659,-34.909l2.4546,0l12.5965,34.909l-2.25,0l-11.4886,-32.16499l-0.1704,0l-11.48869,32.16499zm3.18749,-13.142l16.7727,0l0,1.97701l-16.7727,0l0,-1.97701zm7.3807,-25.5l4.5682,-7.534l2.4716,0l-5.1307,7.534l-1.9091,0zm27.2148,28.41499l-0.0341,-2.983l0.5454,0l13.0909,-12.972l2.7103,0l-12.0171,11.93201l-0.2045,0.08501l-4.0909,3.93799zm-1.8069,10.22701l0,-34.909l2.0796,0l0,34.909l-2.0796,0zm16.0057,0l-11.0454,-13.96001l1.5,-1.381l12.2045,15.341l-2.6591,0zm21.7304,0.545c-2.1591,0 -4.0795,-0.57899 -5.7613,-1.73799c-1.6819,-1.17101 -3.0057,-2.77901 -3.9716,-4.82401c-0.9659,-2.04601 -1.4489,-4.375 -1.4489,-6.989c0,-2.625 0.483,-4.95401 1.4489,-6.98801c0.9659,-2.04599 2.2897,-3.65399 3.9716,-4.82399c1.6818,-1.17101 3.6022,-1.75601 5.7613,-1.75601c2.1591,0 4.0796,0.58501 5.7614,1.75601c1.6818,1.17 3.0057,2.778 3.9716,4.82399c0.9659,2.045 1.4488,4.375 1.4488,6.98801c0,2.614 -0.4829,4.94299 -1.4488,6.989c-0.9659,2.045 -2.2898,3.653 -3.9716,4.82401c-1.6818,1.159 -3.60229,1.73799 -5.7614,1.73799zm0,-1.92599c1.8296,0 3.4262,-0.517 4.7898,-1.55101c1.375,-1.034 2.4375,-2.43199 3.1875,-4.19299c0.7614,-1.761 1.142,-3.722 1.142,-5.881c0,-2.159 -0.3806,-4.11301 -1.142,-5.86301c-0.7614,-1.76199 -1.8239,-3.159 -3.1875,-4.19299c-1.3636,-1.04601 -2.96021,-1.569 -4.7898,-1.569c-1.8295,0 -3.4261,0.52299 -4.7897,1.569c-1.3637,1.034 -2.4262,2.431 -3.1875,4.19299c-0.76141,1.75 -1.14211,3.70401 -1.14211,5.86301c0,2.159 0.375,4.12 1.125,5.881c0.7614,1.761 1.8239,3.159 3.1875,4.19299c1.375,1.03401 2.9773,1.55101 4.8068,1.55101zm39.7814,-19.159l-1.926,0.51199c-0.307,-0.955 -0.744,-1.77901 -1.312,-2.472c-0.569,-0.69299 -1.285,-1.22701 -2.148,-1.60201c-0.852,-0.38699 -1.875,-0.58 -3.068,-0.58c-1.921,0 -3.495,0.47701 -4.722,1.43201c-1.216,0.955 -1.824,2.19901 -1.824,3.733c0,1.25 0.415,2.284 1.244,3.10201c0.83,0.80699 2.097,1.42099 3.802,1.84099l4.022,1.00601c2.069,0.51099 3.625,1.34099 4.671,2.48799c1.045,1.13701 1.568,2.552 1.568,4.245c0,1.44301 -0.392,2.72101 -1.176,3.83501c-0.784,1.114 -1.869,1.983 -3.256,2.608c-1.375,0.625 -2.97701,0.937 -4.807,0.937c-2.443,0 -4.44901,-0.56799 -6.01701,-1.70399c-1.56799,-1.14801 -2.574,-2.79001 -3.017,-4.92601l1.995,-0.51199c0.375,1.705 1.153,3.006 2.335,3.90401c1.193,0.88599 2.755,1.32899 4.687,1.32899c2.137,0 3.858,-0.505 5.165,-1.517c1.318,-1.011 1.97701,-2.30701 1.97701,-3.886c0,-1.205 -0.386,-2.222 -1.159,-3.05099c-0.772,-0.83 -1.943,-1.438 -3.511,-1.82401l-4.17599,-1.02299c-2.137,-0.52301 -3.739,-1.358 -4.807,-2.505c-1.068,-1.16 -1.60201,-2.586 -1.60201,-4.27901c0,-1.409 0.369,-2.64799 1.108,-3.71599c0.738,-1.06801 1.755,-1.903 3.051,-2.505c1.295,-0.603 2.778,-0.90401 4.449,-0.90401c2.216,0 4.022,0.52301 5.42,1.56801c1.398,1.04599 2.409,2.534 3.034,4.466zm31.337,20.53999l0,-34.909l19.483,0l0,1.97699l-17.35201,0l0,14.472l15.733,0l0,1.97701l-15.733,0l0,16.483l-2.131,0zm40.481,0.545c-2.364,0 -4.42101,-0.58499 -6.17101,-1.755c-1.75,-1.17099 -3.10199,-2.77299 -4.056,-4.80699c-0.955,-2.034 -1.43199,-4.35201 -1.43199,-6.955c0,-2.61301 0.47699,-4.94299 1.43199,-6.98801c0.965,-2.04599 2.289,-3.659 3.97101,-4.84099c1.68199,-1.18201 3.60199,-1.77301 5.761,-1.77301c1.46599,0 2.853,0.29601 4.15999,0.886c1.31801,0.58 2.47701,1.42101 3.47701,2.52301c1.011,1.10199 1.80099,2.43199 2.369,3.989c0.58,1.55699 0.869,3.30699 0.869,5.25l0,1.295l-20.72701,0l0,-1.892l18.64799,0c0,-1.897 -0.386,-3.608 -1.159,-5.13c-0.77299,-1.52299 -1.82401,-2.733 -3.15401,-3.631c-1.32899,-0.89801 -2.823,-1.347 -4.48299,-1.347c-1.73801,0 -3.289,0.489 -4.653,1.466c-1.35201,0.96599 -2.42601,2.27299 -3.222,3.92099c-0.78401,1.647 -1.19301,3.48801 -1.22701,5.522l0,0.853c0,2.181 0.381,4.142 1.142,5.88c0.77299,1.728 1.875,3.097 3.30701,4.108c1.43199,1 3.14799,1.5 5.14799,1.5c1.43199,0 2.653,-0.23801 3.66499,-0.716c1.022,-0.48801 1.858,-1.07899 2.505,-1.772c0.64799,-0.694 1.13699,-1.364 1.466,-2.01199l1.892,0.767c-0.39799,0.875 -1.017,1.75 -1.858,2.625c-0.82899,0.864 -1.886,1.586 -3.17,2.16499c-1.27299,0.58 -2.77299,0.869 -4.5,0.869zm22.34,-0.545l0,-26.18201l2.028,0l0,4.091l0.187,0c0.569,-1.341 1.52901,-2.41499 2.88101,-3.22099c1.35199,-0.819 2.892,-1.228 4.61899,-1.228c0.18201,0 0.364,0 0.54601,0c0.18201,0 0.35201,0.006 0.511,0.017l0,2.097c-0.136,-0.01201 -0.30099,-0.02901 -0.494,-0.05101c-0.18199,-0.034 -0.409,-0.05099 -0.68199,-0.05099c-1.45401,0 -2.75,0.312 -3.886,0.937c-1.125,0.625 -2.01201,1.489 -2.65901,2.591c-0.64799,1.091 -0.972,2.341 -0.972,3.75l0,17.25l-2.07899,0zm30.57201,0.545c-2.36301,0 -4.42,-0.58499 -6.17,-1.755c-1.75,-1.17099 -3.10201,-2.77299 -4.05701,-4.80699c-0.955,-2.034 -1.43201,-4.35201 -1.43201,-6.955c0,-2.61301 0.47701,-4.94299 1.43201,-6.98801c0.966,-2.04599 2.28999,-3.659 3.972,-4.84099c1.681,-1.18201 3.60201,-1.77301 5.761,-1.77301c1.466,0 2.85201,0.29601 4.159,0.886c1.31801,0.58 2.47701,1.42101 3.47701,2.52301c1.01199,1.10199 1.80099,2.43199 2.37,3.989c0.57901,1.55699 0.86899,3.30699 0.86899,5.25l0,1.295l-20.72699,0l0,-1.892l18.647,0c0,-1.897 -0.386,-3.608 -1.159,-5.13c-0.772,-1.52299 -1.82401,-2.733 -3.153,-3.631c-1.33,-0.89801 -2.82401,-1.347 -4.483,-1.347c-1.739,0 -3.29001,0.489 -4.653,1.466c-1.353,0.96599 -2.427,2.27299 -3.222,3.92099c-0.784,1.647 -1.19301,3.48801 -1.22701,5.522l0,0.853c0,2.181 0.38,4.142 1.142,5.88c0.772,1.728 1.875,3.097 3.30701,4.108c1.431,1 3.147,1.5 5.147,1.5c1.43199,0 2.65399,-0.23801 3.66499,-0.716c1.02299,-0.48801 1.858,-1.07899 2.506,-1.772c0.647,-0.694 1.136,-1.364 1.466,-2.01199l1.892,0.767c-0.39801,0.875 -1.017,1.75 -1.858,2.625c-0.83,0.864 -1.88699,1.586 -3.17099,2.16499c-1.272,0.58 -2.772,0.869 -4.5,0.869zm24.41998,-17.522l0,16.97701l-2.07999,0l0,-26.18201l2.02798,0l0,4.14201l0.20502,0c0.61398,-1.35201 1.59698,-2.43701 2.94901,-3.255c1.35199,-0.819 2.95999,-1.228 4.82401,-1.228c1.76099,0 3.30698,0.375 4.63599,1.125c1.341,0.75 2.38599,1.81799 3.13599,3.205c0.76202,1.375 1.14301,3.017 1.14301,4.92599l0,17.267l-2.07999,0l0,-17.18201c0,-2.22699 -0.66501,-4.017 -1.99402,-5.36899c-1.319,-1.364 -3.06299,-2.04601 -5.23297,-2.04601c-1.45502,0 -2.75,0.319 -3.88702,0.955c-1.13599,0.636 -2.02798,1.528 -2.67599,2.67599c-0.64801,1.136 -0.97101,2.466 -0.97101,3.989zm40.10101,17.522c-2.228,0 -4.18799,-0.58499 -5.88101,-1.755c-1.69299,-1.18199 -3.017,-2.79599 -3.97198,-4.84099c-0.94299,-2.04601 -1.414,-4.364 -1.414,-6.955c0,-2.591 0.47699,-4.909 1.43201,-6.95401c0.95398,-2.04599 2.27798,-3.659 3.97098,-4.84099c1.69302,-1.18201 3.642,-1.77301 5.84702,-1.77301c1.659,0 3.16998,0.341 4.534,1.02301c1.375,0.68199 2.51099,1.631 3.409,2.84599c0.909,1.216 1.48901,2.625 1.73901,4.228l-2.11401,0c-0.341,-1.77299 -1.19299,-3.239 -2.55701,-4.39799c-1.35199,-1.17 -3.017,-1.756 -4.99399,-1.756c-1.77301,0 -3.353,0.5 -4.73901,1.5c-1.38599,0.989 -2.47699,2.358 -3.27298,4.108c-0.79501,1.739 -1.19299,3.733 -1.19299,5.983c0,2.21599 0.38699,4.20499 1.159,5.96599c0.77298,1.75 1.853,3.136 3.23898,4.15901c1.38602,1.02299 2.98901,1.534 4.80701,1.534c1.284,0 2.45401,-0.255 3.51099,-0.767c1.06802,-0.511 1.96002,-1.23801 2.67603,-2.18201c0.71597,-0.94299 1.18799,-2.045 1.41498,-3.306l2.11401,0c-0.25,1.61301 -0.819,3.034 -1.70502,4.261c-0.88599,1.22701 -2.017,2.188 -3.392,2.881c-1.375,0.69301 -2.91498,1.039 -4.61899,1.039zm40.63998,-0.545l0,-34.909l2.13,0l0,20.267l0.23901,0l18.409,-20.267l2.82901,0l-15.15302,16.517l15.017,18.392l-2.659,0l-13.72198,-16.858l-4.96002,5.489l0,11.369l-2.13,0zm41.14502,0.562c-1.51199,0 -2.89801,-0.30099 -4.159,-0.903c-1.25,-0.60199 -2.25601,-1.483 -3.017,-2.642c-0.75,-1.159 -1.125,-2.56799 -1.125,-4.22701c0,-1.09099 0.19299,-2.05099 0.57898,-2.881c0.38602,-0.82899 0.983,-1.545 1.79001,-2.14799c0.80701,-0.60201 1.841,-1.09601 3.10199,-1.483c1.26102,-0.397 2.767,-0.70399 4.517,-0.92c1.33002,-0.159 2.51703,-0.313 3.56302,-0.46001c1.04498,-0.159 1.86301,-0.40399 2.45401,-0.733c0.60199,-0.32999 0.90399,-0.82999 0.90399,-1.5l0,-1.09099c0,-1.90901 -0.603,-3.42601 -1.80701,-4.55101c-1.20499,-1.125 -2.86401,-1.68799 -4.97699,-1.68799c-1.875,0 -3.45502,0.41499 -4.73901,1.245c-1.27301,0.81799 -2.16501,1.875 -2.67599,3.17l-1.95999,-0.733c0.5,-1.25 1.22098,-2.28999 2.164,-3.119c0.95499,-0.83 2.04599,-1.44899 3.27298,-1.858c1.23901,-0.409 2.534,-0.614 3.88602,-0.614c1.17099,0 2.284,0.16501 3.341,0.494c1.06799,0.33 2.017,0.83 2.84698,1.5c0.841,0.67101 1.50601,1.52901 1.99402,2.57401c0.48898,1.034 0.73297,2.27299 0.73297,3.716l0,18.28999l-2.07898,0l0,-4.722l-0.15399,0c-0.45401,0.978 -1.07901,1.87 -1.875,2.677c-0.78403,0.795 -1.733,1.431 -2.84601,1.909c-1.103,0.466 -2.34702,0.698 -3.733,0.698zm0.20401,-1.92599c1.63699,0 3.08499,-0.397 4.34698,-1.19301c1.27301,-0.80699 2.267,-1.909 2.983,-3.30699c0.716,-1.397 1.07401,-2.983 1.07401,-4.755l0,-3.853c-0.26199,0.228 -0.642,0.43201 -1.142,0.614c-0.48901,0.17 -1.04602,0.32401 -1.67102,0.46001c-0.61398,0.125 -1.26099,0.239 -1.94299,0.34099c-0.67099,0.091 -1.32401,0.17601 -1.95999,0.25601c-1.909,0.22699 -3.466,0.57899 -4.67099,1.05699c-1.19302,0.466 -2.06802,1.07901 -2.625,1.841c-0.54501,0.761 -0.81802,1.681 -0.81802,2.761c0,1.784 0.61401,3.19299 1.841,4.22701c1.22702,1.034 2.75601,1.55099 4.58502,1.55099zm26.08099,-33.545l0,34.909l-2.07901,0l0,-34.909l2.07901,0zm20.34598,35.47099c-1.51099,0 -2.89798,-0.30099 -4.159,-0.903c-1.25,-0.60199 -2.25598,-1.483 -3.017,-2.642c-0.75,-1.159 -1.125,-2.56799 -1.125,-4.22701c0,-1.09099 0.19302,-2.05099 0.57901,-2.881c0.38699,-0.82899 0.983,-1.545 1.79001,-2.14799c0.80698,-0.60201 1.841,-1.09601 3.10199,-1.483c1.26199,-0.397 2.767,-0.70399 4.517,-0.92c1.33002,-0.159 2.517,-0.313 3.56299,-0.46001c1.04501,-0.159 1.86401,-0.40399 2.45401,-0.733c0.603,-0.32999 0.90399,-0.82999 0.90399,-1.5l0,-1.09099c0,-1.90901 -0.60199,-3.42601 -1.80698,-4.55101c-1.20401,-1.125 -2.86401,-1.68799 -4.97702,-1.68799c-1.875,0 -3.45499,0.41499 -4.73898,1.245c-1.27301,0.81799 -2.16501,1.875 -2.67599,3.17l-1.96002,-0.733c0.5,-1.25 1.22101,-2.28999 2.16501,-3.119c0.95401,-0.83 2.04501,-1.44899 3.272,-1.858c1.23898,-0.409 2.534,-0.614 3.88699,-0.614c1.17001,0 2.284,0.16501 3.341,0.494c1.06799,0.33 2.017,0.83 2.84601,1.5c0.841,0.67101 1.50598,1.52901 1.99399,2.57401c0.48901,1.034 0.733,2.27299 0.733,3.716l0,18.28999l-2.07901,0l0,-4.722l-0.15399,0c-0.45401,0.978 -1.07901,1.87 -1.875,2.677c-0.784,0.795 -1.73199,1.431 -2.84601,1.909c-1.10199,0.466 -2.34698,0.698 -3.733,0.698zm0.20401,-1.92599c1.63699,0 3.086,-0.397 4.34702,-1.19301c1.27298,-0.80699 2.267,-1.909 2.983,-3.30699c0.71597,-1.397 1.07397,-2.983 1.07397,-4.755l0,-3.853c-0.26099,0.228 -0.642,0.43201 -1.142,0.614c-0.48898,0.17 -1.04599,0.32401 -1.67099,0.46001c-0.61301,0.125 -1.26099,0.239 -1.94299,0.34099c-0.67001,0.091 -1.32401,0.17601 -1.95999,0.25601c-1.90903,0.22699 -3.466,0.57899 -4.67001,1.05699c-1.194,0.466 -2.069,1.07901 -2.625,1.841c-0.54599,0.761 -0.819,1.681 -0.819,2.761c0,1.784 0.61401,3.19299 1.841,4.22701c1.228,1.034 2.75598,1.55099 4.58499,1.55099zm24.00201,1.364l0,-26.18201l2.02899,0l0,3.955l0.20401,0c0.5,-1.31799 1.36398,-2.364 2.59097,-3.13699c1.22702,-0.772 2.70502,-1.159 4.43201,-1.159c1.89801,0 3.42599,0.455 4.58502,1.364c1.17099,0.909 2.01099,2.142 2.52298,3.69899l0.18701,0c0.51199,-1.534 1.42599,-2.76199 2.745,-3.68199c1.32901,-0.92 2.966,-1.381 4.909,-1.381c2.534,0 4.466,0.80099 5.79501,2.40399c1.341,1.591 2.01199,3.772 2.01199,6.545l0,17.57401l-2.08002,0l0,-17.57401c0,-2.18199 -0.52298,-3.89799 -1.56799,-5.14799c-1.04599,-1.25 -2.57999,-1.875 -4.60199,-1.875c-2.16,0 -3.819,0.677 -4.978,2.02901c-1.159,1.35199 -1.73801,3.07399 -1.73801,5.16499l0,17.403l-2.07999,0l0,-17.71001c0,-2.034 -0.51102,-3.68799 -1.53403,-4.95999c-1.02298,-1.285 -2.55698,-1.927 -4.60199,-1.927c-1.38699,0 -2.586,0.319 -3.59698,0.955c-1,0.636 -1.77802,1.511 -2.33502,2.625c-0.54599,1.114 -0.81799,2.392 -0.81799,3.83499l0,17.18201l-2.07999,0zm52.37796,0.562c-1.51099,0 -2.89697,-0.30099 -4.159,-0.903c-1.25,-0.60199 -2.25497,-1.483 -3.01697,-2.642c-0.75,-1.159 -1.125,-2.56799 -1.125,-4.22701c0,-1.09099 0.19299,-2.05099 0.57999,-2.881c0.38602,-0.82899 0.983,-1.545 1.789,-2.14799c0.80698,-0.60201 1.84103,-1.09601 3.103,-1.483c1.26099,-0.397 2.76703,-0.70399 4.51703,-0.92c1.32898,-0.159 2.51697,-0.313 3.56195,-0.46001c1.04602,-0.159 1.86401,-0.40399 2.45502,-0.733c0.60199,-0.32999 0.90302,-0.82999 0.90302,-1.5l0,-1.09099c0,-1.90901 -0.60199,-3.42601 -1.80701,-4.55101c-1.20398,-1.125 -2.86298,-1.68799 -4.97699,-1.68799c-1.875,0 -3.45398,0.41499 -4.73798,1.245c-1.27301,0.81799 -2.16504,1.875 -2.677,3.17l-1.96002,-0.733c0.5,-1.25 1.22198,-2.28999 2.16498,-3.119c0.95404,-0.83 2.04504,-1.44899 3.27301,-1.858c1.23798,-0.409 2.534,-0.614 3.88599,-0.614c1.17004,0 2.284,0.16501 3.341,0.494c1.06799,0.33 2.01703,0.83 2.84705,1.5c0.83997,0.67101 1.50494,1.52901 1.99396,2.57401c0.48804,1.034 0.73303,2.27299 0.73303,3.716l0,18.28999l-2.08002,0l0,-4.722l-0.15302,0c-0.45502,0.978 -1.08002,1.87 -1.875,2.677c-0.784,0.795 -1.73297,1.431 -2.84698,1.909c-1.10199,0.466 -2.34601,0.698 -3.73303,0.698zm0.20502,-1.92599c1.63599,0 3.08502,-0.397 4.34601,-1.19301c1.27301,-0.80699 2.26703,-1.909 2.98303,-3.30699c0.71594,-1.397 1.07397,-2.983 1.07397,-4.755l0,-3.853c-0.26099,0.228 -0.64203,0.43201 -1.14203,0.614c-0.48798,0.17 -1.04498,0.32401 -1.66998,0.46001c-0.61401,0.125 -1.26196,0.239 -1.94299,0.34099c-0.67102,0.091 -1.32397,0.17601 -1.961,0.25601c-1.909,0.22699 -3.466,0.57899 -4.66998,1.05699c-1.19299,0.466 -2.06799,1.07901 -2.625,1.841c-0.54602,0.761 -0.81802,1.681 -0.81802,2.761c0,1.784 0.61301,3.19299 1.84103,4.22701c1.22699,1.034 2.75494,1.55099 4.58496,1.55099zm0.83502,-28.55099l4.56799,-7.53401l2.47198,0l-5.13098,7.53401l-1.909,0zm23.16699,29.91499l0,-26.18201l2.02802,0l0,4.091l0.18701,0c0.56897,-1.341 1.52899,-2.41499 2.88098,-3.22099c1.35199,-0.819 2.89197,-1.228 4.61902,-1.228c0.18195,0 0.36395,0 0.54596,0c0.18201,0 0.35199,0.006 0.51099,0.017l0,2.097c-0.13599,-0.01201 -0.30096,-0.02901 -0.49396,-0.05101c-0.18201,-0.034 -0.409,-0.05099 -0.68201,-0.05099c-1.45404,0 -2.75,0.312 -3.88599,0.937c-1.125,0.625 -2.01202,1.489 -2.659,2.591c-0.64801,1.091 -0.97205,2.341 -0.97205,3.75l0,17.25l-2.07898,0z"/>
 </g>
</svg>